<svg width="100" height="14" viewBox="0 0 100 14" fill="none" xmlns="http://www.w3.org/2000/svg">
<path d="M100 8H63V7H100V8Z" fill="#D1D5DB"/>
<path d="M100 8H63V7H100V8Z" stroke="#E5E7EB"/>
<path d="M37 8H0V7H37V8Z" fill="#D1D5DB"/>
<path d="M37 8H0V7H37V8Z" stroke="#E5E7EB"/>
<path d="M56.3972 5.25C57.3472 5.25 59 6.04297 59 7C59 7.98438 57.3472 8.75 56.3972 8.75H53.1583L50.3667 13.5598C50.2083 13.8332 49.9139 14 49.5944 14H48.0333C47.7389 14 47.525 13.7211 47.6056 13.4422L48.9667 8.75H46.1111L44.9111 10.325C44.8278 10.4344 44.6944 10.5 44.5556 10.5H43.3889C43.1722 10.5 43 10.3277 43 10.1172C43 10.0816 43.0056 10.0461 43.0139 10.0105L43.8889 7L43.0139 3.98945C43.0028 3.95391 43 3.91836 43 3.88281C43 3.66953 43.175 3.5 43.3889 3.5H44.5556C44.6944 3.5 44.8278 3.56563 44.9111 3.675L46.1111 5.25H48.9694L47.6083 0.557812C47.525 0.278906 47.7389 0 48.0333 0H49.5944C49.9139 0 50.2083 0.169531 50.3667 0.440234L53.1583 5.25H56.3972Z" fill="#2F97FF"/>
</svg>
