<svg width="19" height="19" viewBox="0 0 19 19" fill="none" xmlns="http://www.w3.org/2000/svg">
<path d="M1.87553 5.375H9.59303C9.74105 5.37491 9.88668 5.41237 10.0163 5.48388C10.1459 5.55539 10.2552 5.65861 10.3341 5.78388C10.4129 5.90916 10.4587 6.05238 10.4671 6.20016C10.4756 6.34794 10.4464 6.49545 10.3823 6.62887L9.12228 9.25387C9.05092 9.40242 8.93907 9.52779 8.7996 9.61556C8.66012 9.70333 8.4987 9.74994 8.33391 9.75H3.13466C2.96986 9.74994 2.80844 9.70333 2.66896 9.61556C2.52949 9.52779 2.41764 9.40242 2.34628 9.25387L1.08628 6.62887C1.02222 6.49552 0.993019 6.34809 1.00141 6.20038C1.0098 6.05267 1.0555 5.9095 1.13425 5.78425C1.213 5.65901 1.32222 5.55577 1.45171 5.4842C1.58119 5.41263 1.72758 5.37506 1.87553 5.375Z" stroke="#49454F" stroke-width="2" stroke-linecap="round" stroke-linejoin="round"/>
<path d="M3.98425 5.375L3.30175 3.32575C3.27988 3.26008 3.2739 3.19017 3.2843 3.12174C3.29471 3.05332 3.3212 2.98833 3.36159 2.93214C3.40199 2.87594 3.45515 2.83012 3.51669 2.79846C3.57824 2.7668 3.64642 2.75019 3.71563 2.75H7.75113C7.82049 2.74991 7.88887 2.76632 7.95065 2.79786C8.01242 2.82941 8.0658 2.87519 8.1064 2.93143C8.147 2.98766 8.17364 3.05275 8.18413 3.12131C8.19463 3.18987 8.18867 3.25994 8.16675 3.32575L7.48425 5.375M5.73425 1V2.75M3.98425 9.75V17.625H7.48425V9.75M1.35925 17.625H17.1093M17.9843 3.625H12.7343L11.8593 2.75" stroke="#49454F" stroke-width="2" stroke-linecap="round" stroke-linejoin="round"/>
<path d="M14.4843 1.875L16.2343 3.625L14.4843 5.375M7.48425 14.125H13.6093C14.0734 14.125 14.5185 14.3094 14.8467 14.6376C15.1749 14.9658 15.3593 15.4109 15.3593 15.875V17.625" stroke="#49454F" stroke-width="2" stroke-linecap="round" stroke-linejoin="round"/>
</svg>
