<svg width="18" height="20" viewBox="0 0 18 20" fill="none" xmlns="http://www.w3.org/2000/svg">
<g clip-path="url(#clip0_415_764)">
<path d="M8.75 0C8.05859 0 7.5 0.558594 7.5 1.25V2C4.64844 2.57813 2.5 5.10156 2.5 8.125V8.85938C2.5 10.6953 1.82422 12.4687 0.605469 13.8437L0.316406 14.168C-0.0117188 14.5352 -0.0898438 15.0625 0.109375 15.5117C0.308594 15.9609 0.757812 16.25 1.25 16.25H16.25C16.7422 16.25 17.1875 15.9609 17.3906 15.5117C17.5938 15.0625 17.5117 14.5352 17.1836 14.168L16.8945 13.8437C15.6758 12.4687 15 10.6992 15 8.85938V8.125C15 5.10156 12.8516 2.57813 10 2V1.25C10 0.558594 9.44141 0 8.75 0ZM10.5195 19.2695C10.9883 18.8008 11.25 18.1641 11.25 17.5H8.75H6.25C6.25 18.1641 6.51172 18.8008 6.98047 19.2695C7.44922 19.7383 8.08594 20 8.75 20C9.41406 20 10.0508 19.7383 10.5195 19.2695Z" fill="#0071E2"/>
</g>
<defs>
<clipPath id="clip0_415_764">
<path d="M0 0H17.5V20H0V0Z" fill="white"/>
</clipPath>
</defs>
</svg>
