<svg width="18" height="16" viewBox="0 0 18 16" fill="none" xmlns="http://www.w3.org/2000/svg">
<g clip-path="url(#clip0_574_706)">
<path d="M9.00001 1C6.47501 1 4.45314 2.15 2.98126 3.51875C1.51876 4.875 0.540637 6.5 0.0781372 7.61562C-0.0249878 7.8625 -0.0249878 8.1375 0.0781372 8.38437C0.540637 9.5 1.51876 11.125 2.98126 12.4812C4.45314 13.85 6.47501 15 9.00001 15C11.525 15 13.5469 13.85 15.0188 12.4812C16.4813 11.1219 17.4594 9.5 17.925 8.38437C18.0281 8.1375 18.0281 7.8625 17.925 7.61562C17.4594 6.5 16.4813 4.875 15.0188 3.51875C13.5469 2.15 11.525 1 9.00001 1ZM4.50001 8C4.50001 6.80653 4.97412 5.66193 5.81803 4.81802C6.66195 3.97411 7.80654 3.5 9.00001 3.5C10.1935 3.5 11.3381 3.97411 12.182 4.81802C13.0259 5.66193 13.5 6.80653 13.5 8C13.5 9.19347 13.0259 10.3381 12.182 11.182C11.3381 12.0259 10.1935 12.5 9.00001 12.5C7.80654 12.5 6.66195 12.0259 5.81803 11.182C4.97412 10.3381 4.50001 9.19347 4.50001 8ZM9.00001 6C9.00001 7.10312 8.10314 8 7.00001 8C6.77814 8 6.56564 7.9625 6.36564 7.89687C6.19376 7.84062 5.99376 7.94688 6.00001 8.12813C6.00939 8.34375 6.04064 8.55937 6.10001 8.775C6.52814 10.375 8.17501 11.325 9.77501 10.8969C11.375 10.4688 12.325 8.82188 11.8969 7.22188C11.55 5.925 10.4031 5.05313 9.12814 5C8.94689 4.99375 8.84064 5.19062 8.89689 5.36562C8.96251 5.56562 9.00001 5.77813 9.00001 6Z" fill="#9CA3AF"/>
</g>
<defs>
<clipPath id="clip0_574_706">
<path d="M0 0H18V16H0V0Z" fill="white"/>
</clipPath>
</defs>
</svg>
