<svg width="130" height="22" viewBox="0 0 130 22" fill="none" xmlns="http://www.w3.org/2000/svg">
<path d="M129.406 22H0V21H129.406V22Z" fill="#2F97FF"/>
<path d="M129.406 22H0V21H129.406V22Z" stroke="#E8EFF0"/>
<path d="M71.0719 6C72.1406 6 74 6.90625 74 8C74 9.125 72.1406 10 71.0719 10H67.4281L64.2875 15.4969C64.1094 15.8094 63.7781 16 63.4187 16H61.6625C61.3312 16 61.0906 15.6813 61.1813 15.3625L62.7125 10H59.5L58.15 11.8C58.0563 11.925 57.9062 12 57.75 12H56.4375C56.1937 12 56 11.8031 56 11.5625C56 11.5219 56.0062 11.4813 56.0156 11.4406L57 8L56.0156 4.55937C56.0031 4.51875 56 4.47812 56 4.4375C56 4.19375 56.1969 4 56.4375 4H57.75C57.9062 4 58.0563 4.075 58.15 4.2L59.5 6H62.7156L61.1844 0.6375C61.0906 0.31875 61.3312 0 61.6625 0H63.4187C63.7781 0 64.1094 0.19375 64.2875 0.503125L67.4281 6H71.0719Z" fill="#2F97FF"/>
</svg>
