<svg width="20" height="16" viewBox="0 0 20 16" fill="none" xmlns="http://www.w3.org/2000/svg">
<g clip-path="url(#clip0_415_795)">
<path d="M0.009375 5.21562L0 2.125C0 1.80313 0.296875 1.56562 0.609375 1.63437L1.72187 1.88125C2.05312 1.95312 2.32187 2.19062 2.44062 2.50625L3 4L6.97813 5.175L5.68125 0.6375C5.59063 0.31875 5.83125 0 6.1625 0H7.41563C7.77813 0 8.10938 0.19375 8.2875 0.509375L11.6938 6.56563L15.0437 7.55625C15.5406 7.70312 16.0062 7.94688 16.4094 8.26875L17.4844 9.13125C18.2344 9.73125 18.05 10.9219 17.15 11.2625C15.8625 11.75 14.4563 11.8281 13.125 11.4812L3.80312 9.05625C3.45625 8.96562 3.14062 8.78438 2.8875 8.52812L0.296875 5.91875C0.1125 5.73125 0.00625 5.48125 0.00625 5.21562H0.009375ZM1 14H19C19.5531 14 20 14.4469 20 15C20 15.5531 19.5531 16 19 16H1C0.446875 16 0 15.5531 0 15C0 14.4469 0.446875 14 1 14ZM4 11.5C4 11.2348 4.10536 10.9804 4.29289 10.7929C4.48043 10.6054 4.73478 10.5 5 10.5C5.26522 10.5 5.51957 10.6054 5.70711 10.7929C5.89464 10.9804 6 11.2348 6 11.5C6 11.7652 5.89464 12.0196 5.70711 12.2071C5.51957 12.3946 5.26522 12.5 5 12.5C4.73478 12.5 4.48043 12.3946 4.29289 12.2071C4.10536 12.0196 4 11.7652 4 11.5ZM8 11C8.26522 11 8.51957 11.1054 8.70711 11.2929C8.89464 11.4804 9 11.7348 9 12C9 12.2652 8.89464 12.5196 8.70711 12.7071C8.51957 12.8946 8.26522 13 8 13C7.73478 13 7.48043 12.8946 7.29289 12.7071C7.10536 12.5196 7 12.2652 7 12C7 11.7348 7.10536 11.4804 7.29289 11.2929C7.48043 11.1054 7.73478 11 8 11Z" fill="#9CA3AF"/>
</g>
<defs>
<clipPath id="clip0_415_795">
<path d="M0 0H20V16H0V0Z" fill="white"/>
</clipPath>
</defs>
</svg>
