<svg width="12" height="18" viewBox="0 0 12 18" fill="none" xmlns="http://www.w3.org/2000/svg">
<g clip-path="url(#clip0_415_778)">
<path d="M4.83047 1.45547C5.26993 1.01601 5.9836 1.01601 6.42305 1.45547L10.9231 5.95547C11.2465 6.2789 11.3414 6.76055 11.1656 7.18242C10.9898 7.6043 10.582 7.87851 10.125 7.87851H1.125C0.671488 7.87851 0.26016 7.6043 0.084379 7.18242C-0.0914022 6.76055 0.00703526 6.2789 0.326957 5.95547L4.82696 1.45547H4.83047ZM4.83047 16.548L0.330473 12.048C0.00703526 11.7246 -0.0878866 11.243 0.0878946 10.8211C0.263676 10.3992 0.671488 10.125 1.12852 10.125H10.125C10.5785 10.125 10.9898 10.3992 11.1656 10.8211C11.3414 11.243 11.243 11.7246 10.9231 12.048L6.42305 16.548C5.9836 16.9875 5.26993 16.9875 4.83047 16.548Z" fill="#0071E2"/>
</g>
<defs>
<clipPath id="clip0_415_778">
<path d="M0 0H11.25V18H0V0Z" fill="white"/>
</clipPath>
</defs>
</svg>
