<svg width="20" height="16" viewBox="0 0 20 16" fill="none" xmlns="http://www.w3.org/2000/svg">
<g clip-path="url(#clip0_415_790)">
<path d="M11.9062 3.59063L5.81563 1.30625C5.29375 1.1125 4.71562 1.14063 4.21875 1.39063L2.78437 2.10625C2.4375 2.28125 2.4125 2.76563 2.7375 2.975L7.32812 5.92813L4.25 7.5L2.43125 6.69063C2.15938 6.56875 1.84375 6.575 1.57812 6.70938L0.571875 7.2125C0.28125 7.35938 0.203125 7.7375 0.415625 7.98438L2.7 10.65C2.89062 10.8719 3.16875 11 3.45937 11H7.7625C7.91875 11 8.07188 10.9625 8.20938 10.8938L16.7375 6.63125C18.1906 5.90313 19.3156 4.65313 19.8875 3.13125C20.1844 2.34375 19.6 1.5 18.7563 1.5H16.9625C16.3312 1.5 15.7063 1.65 15.1438 1.9375L11.9062 3.59063ZM0 15C0 15.5531 0.446875 16 1 16H19C19.5531 16 20 15.5531 20 15C20 14.4469 19.5531 14 19 14H1C0.446875 14 0 14.4469 0 15Z" fill="#9CA3AF"/>
</g>
<defs>
<clipPath id="clip0_415_790">
<path d="M0 0H20V16H0V0Z" fill="white"/>
</clipPath>
</defs>
</svg>
