<svg width="18" height="18" viewBox="0 0 18 18" fill="none" xmlns="http://www.w3.org/2000/svg">
<path d="M18 18H0V0H18V18Z" stroke="#E5E7EB"/>
<path d="M0.137109 1.93008C0.36914 1.43789 0.861327 1.125 1.40625 1.125H16.5937C17.1387 1.125 17.6309 1.43789 17.8629 1.93008C18.0949 2.42227 18.0246 3.00234 17.6801 3.42422L11.25 11.2816V15.75C11.25 16.1754 11.0109 16.5656 10.6277 16.7555C10.2445 16.9453 9.79101 16.9066 9.45 16.65L7.2 14.9625C6.91523 14.7516 6.75 14.4176 6.75 14.0625V11.2816L0.316406 3.4207C-0.02461 3.00234 -0.0984381 2.41875 0.137109 1.93008Z" fill="#0071E2"/>
</svg>
